<svg width="32" height="32" viewBox="0 0 32 32" fill="none" xmlns="http://www.w3.org/2000/svg">
  <!-- Background circle for better visibility -->
  <circle cx="16" cy="16" r="15" fill="#f59e0b"/>
  <circle cx="16" cy="16" r="13" fill="#ffffff"/>
  
  <!-- Hand-coins icon from Lucide - scaled and centered -->
  <g transform="translate(4, 4) scale(1)">
    <path d="M11 15h2a2 2 0 1 0 0-4h-3c-.6 0-1.1.2-1.4.6L7 13" stroke="#f59e0b" stroke-width="1.5" stroke-linecap="round" stroke-linejoin="round"/>
    <path d="m7 21 1.6-1.4c.3-.4.8-.6 1.4-.6h4c1.1 0 2.1-.4 2.8-1.2l4.6-4.4a2 2 0 0 0-2.75-2.91l-4.2 3.9" stroke="#f59e0b" stroke-width="1.5" stroke-linecap="round" stroke-linejoin="round"/>
    <path d="m2 16 6 2 3-4" stroke="#f59e0b" stroke-width="1.5" stroke-linecap="round" stroke-linejoin="round"/>
    <circle cx="16" cy="9" r="2.9" stroke="#f59e0b" stroke-width="1.5" fill="none"/>
    <circle cx="6" cy="5" r="3" stroke="#f59e0b" stroke-width="1.5" fill="none"/>
  </g>
</svg>
